# AST/ASF file generated using VICON BodyLanguage
# -----------------------------------------------
:version 1.10
:name VICON
:units
  mass 1.0
  length 0.45
  angle deg
:documentation
   .ast/.asf automatically generated from VICON data using
   VICON BodyBuilder and BodyLanguage model FoxedUp or BRILLIANT.MOD
:root
   order TX TY TZ RX RY RZ
   axis XYZ
   position 0 0 0  
   orientation 0 0 0 
:bonedata
  begin
     id 1 
     name lhipjoint
     direction 0.630305 -0.712092 0.309259 
     length 2.29033 
     axis 0 0 0  XYZ
  end
  begin
     id 2 
     name lfemur
     direction 0.34202 -0.939693 0  
     length 6.43538  
     axis 0 0 20  XYZ
    dof rx ry rz
    limits (-160.0 20.0)
           (-70.0 70.0)
           (-60.0 70.0)
  end
  begin
     id 3 
     name ltibia
     direction 0.34202 -0.939693 0   
     length 7.43097   
     axis 0 0 20   XYZ
    dof rx
    limits (-10.0 170.0)
  end
  begin
     id 4 
     name lfoot
     direction 0.0334653 -0.0919451 0.995202   
     length 1.78438   
     axis -90 7.62852e-016 20   XYZ
    dof rx rz
    limits (-45.0 90.0)
           (-70.0 20.0)
  end
  begin
     id 5 
     name ltoes
     direction 1.53535e-011 -4.21933e-011 1   
     length 0.90832   
     axis -90 7.62852e-016 20   XYZ
    dof rx
    limits (-90.0 20.0)
  end
  begin
     id 6 
     name rhipjoint
     direction -0.682059 -0.67077 0.291312   
     length 2.43143  
     axis 0 0 0  XYZ 
  end
  begin
     id 7 
     name rfemur
     direction -0.34202 -0.939693 0   
     length 6.63488   
     axis 0 0 -20   XYZ
    dof rx ry rz
    limits (-160.0 20.0)
           (-70.0 70.0)
           (-70.0 60.0)
  end
  begin
     id 8 
     name rtibia
     direction -0.34202 -0.939693 0   
     length 6.86532   
     axis 0 0 -20   XYZ
    dof rx
    limits (-10.0 170.0)
 end
 begin
     id 9 
     name rfoot
     direction -0.105199 -0.289033 0.951521   
     length 1.77126  
     axis -90 -7.62852e-016 -20   XYZ
    dof rx rz
    limits (-45.0 90.0)
           (-20.0 70.0)
  end
  begin
     id 10 
     name rtoes
     direction -1.53551e-011 -4.21978e-011 1   
     length 0.889273   
     axis -90 -7.62852e-016 -20   XYZ
    dof rx
    limits (-90.0 20.0)
  end
  begin
     id 11 
     name lowerback
     direction -0.0514305 0.998089 0.034245   
     length 2.02077   
     axis 0 0 0   XYZ
    dof rx ry rz
    limits (-20.0 45.0)
           (-30.0 30.0)
           (-30.0 30.0)
  end
  begin
     id 12 
     name upperback
     direction 0.0203189 0.999449 -0.0262315   
     length 2.01413   
     axis 0 0 0   XYZ
    dof rx ry rz
    limits (-20.0 45.0)
           (-30.0 30.0)
           (-30.0 30.0)
  end
  begin
     id 13 
     name thorax
     direction 0.0452736 0.998142 -0.0407729   
     length 2.02986   
     axis 0 0 0   XYZ
    dof rx ry rz
    limits (-20.0 45.0)
           (-30.0 30.0)
           (-30.0 30.0)
  end
  begin
     id 14 
     name lowerneck
     direction -0.0180464 0.999645 -0.0195774   
     length 1.59034   
     axis 0 0 0   XYZ
    dof rx ry rz
    limits (-20.0 45.0)
           (-30.0 30.0)
           (-30.0 30.0)
  end
  begin
     id 15 
     name upperneck
     direction 0.0732272 0.979935 -0.18538   
     length 1.57486   
     axis 0 0 0   XYZ
    dof rx ry rz
    limits (-20.0 45.0)
           (-30.0 30.0)
           (-30.0 30.0)
  end
  begin
     id 16
     name head
     direction 0.0252963 0.997909 -0.059472  
     length 1.60334  
     axis 0 0 0   XYZ
    dof rx ry rz
    limits (-20.0 45.0)
           (-30.0 30.0)
           (-30.0 30.0)
  end
  begin
     id 17 
     name lclavicle
     direction 0.943819 0.330449 0.00315172  
     length 3.50322  
     axis 0 0 0   XYZ
    dof ry rz
    limits (-20.0 10.0)
           (0.0 20.0)
  end
  begin
     id 18 
     name lhumerus
     direction 1 -4.48949e-011 2.22502e-028   
     length 4.63208   
     axis 180 -30 -90   XYZ
    dof rx ry rz
    limits (-60.0 90.0)
           (-90.0 90.0)
           (-90.0 90.0)
  end
  begin
     id 19
     name lradius
     direction 1 -4.48967e-011 -4.10197e-027   
     length 3.41924   
     axis 180 -30 -90   XYZ
    dof rx
    limits (-10.0 170.0)
  end
  begin
     id 20
     name lwrist
     direction 1 -4.48987e-011 -1.24264e-027   
     length 1.70962   
     axis 2.50585e-015 90 90   XYZ
    dof ry
    limits (-180.0 0.0)
 end
  begin
     id 21 
     name lhand
     direction 1 -4.48983e-011 -2.48528e-027   
     length 0.62537   
     axis 1.58582e-015 90 90   XYZ
    dof rx rz
    limits (-90.0 90.0)
           (-45.0 45.0)
  end
  begin
     id 22 
     name lfingers
     direction 1 -4.48896e-011 -4.97056e-027   
     length 0.50419   
     axis 3.17164e-015 90 90   XYZ
    dof rx
    limits (0.0 90.0)
  end
  begin
     id 23
     name lthumb
     direction 0.707107 -6.34803e-011 0.707107   
     length 0.723919   
     axis -90 45 2.85299e-015   XYZ
    dof rx rz
    limits (-45.0 45.0)
           (-45.0 45.0)
  end
  begin
     id 24 
     name rclavicle
     direction -0.964499 0.260664 -0.0423695   
     length 3.91997  
     axis 0 0 0   XYZ 
    dof ry rz
    limits (-10.0 20.0)
           (-20.0 0.0)
  end
  begin
     id 25 
     name rhumerus
     direction -1 -4.48957e-011 -1.98656e-027  
     length 4.4064   
     axis 180 30 90   XYZ
    dof rx ry rz
    limits (-90.0 60.0)
           (-90.0 90.0)
           (-90.0 90.0)
  end
  begin
     id 26 
     name rradius
     direction -1 -4.48968e-011 1.96972e-027   
     length 3.44675   
     axis 180 30 90   XYZ
    dof rx
    limits (-10.0 170.0)
  end
  begin
     id 27 
     name rwrist
     direction -1 -4.48974e-011 -1.24264e-027   
     length 1.72338   
     axis 2.50585e-015 -90 -90   XYZ
    dof ry
    limits (-180.0 0.0)
  end
  begin
     id 28
     name rhand
     direction -1 -4.48901e-011 -2.48528e-027   
     length 0.513674   
     axis 1.58582e-015 -90 -90   XYZ
    dof rx rz
    limits (-90.0 90.0)
           (-45.0 45.0)
  end
  begin
     id 29
     name rfingers
     direction -1 -4.48946e-011 -4.97056e-027   
     length 0.414137   
     axis 3.17164e-015 -90 -90   XYZ
    dof rx
    limits (0.0 90.0)
  end
  begin
     id 30
     name rthumb
     direction -0.707107 -6.34859e-011 0.707107   
     length 0.59462   
     axis -90 -45 -2.85299e-015   XYZ
    dof rx rz
    limits (-45.0 45.0)
           (-45.0 45.0)
  end
:hierarchy
  begin
    root lhipjoint rhipjoint lowerback
    lhipjoint lfemur
    lfemur ltibia
    ltibia lfoot
    lfoot ltoes
    rhipjoint rfemur
    rfemur rtibia
    rtibia rfoot
    rfoot rtoes
    lowerback upperback
    upperback thorax
    thorax lowerneck lclavicle rclavicle
    lowerneck upperneck
    upperneck head
    lclavicle lhumerus
    lhumerus lradius
    lradius lwrist
    lwrist lhand lthumb
    lhand lfingers
    rclavicle rhumerus
    rhumerus rradius
    rradius rwrist
    rwrist rhand rthumb
    rhand rfingers
  end

#!OML:ASF E:\inclinewalkrobotboard\Project 1\Capture day 1\Session 1\subject1.ASF
:FULLY-SPECIFIED
:DEGREES
32
root 8.24764 16.6214 23.8339 -170.035 3.45602 -179.426
lowerback -8.60131 2.27853 -5.54975
upperback -0.0398107 3.56754 1.19861
thorax 4.36894 1.65183 4.79997
lowerneck -8.4587 1.17413 -3.74724
upperneck 26.5337 -1.65203 7.53757
head 9.83882 -1.077 2.98536
rclavicle -2.48916e-014 -2.08724e-015
rhumerus -46.9725 -35.8442 -64.1805
rradius 24.1037
rwrist 20.5863
rhand -19.45 -40.0321
rfingers 7.12502
rthumb 6.87078 -69.9006
lclavicle -2.48916e-014 -2.08724e-015
lhumerus -29.0241 15.48 81.5317
lradius 12.7342
lwrist -39.0904
lhand -27.9827 -18.8577
lfingers 7.12502
lthumb -1.36921 11.1176
rfemur -9.44248 1.47546 21.3451
rtibia 9.5998
rfoot -14.3219 -4.52708
rtoes -18.2435
lfemur -10.1167 -8.19516 -18.1168
ltibia 12.8014
lfoot -16.4241 4.21142
ltoes -53.6201
33
root 8.2398 16.6206 23.8301 -169.965 3.45453 -179.262
lowerback -8.6927 2.34637 -5.38064
upperback -0.0100673 3.64612 1.20989
thorax 4.45138 1.69048 4.73173
lowerneck -8.65636 1.10154 -3.52666
upperneck 26.6068 -1.74075 7.35578
head 9.90921 -1.10697 2.87575
rclavicle 2.96562e-014 -3.37934e-015
rhumerus -47.0012 -36.2089 -63.9385
rradius 24.0291
rwrist 21.076
rhand -19.4361 -39.4497
rfingers 7.12502
rthumb 6.8842 -69.3178
lclavicle 2.96562e-014 -3.37934e-015
lhumerus -29.0842 15.4525 81.5264
lradius 12.7729
lwrist -39.1128
lhand -27.8509 -19.0161
lfingers 7.12502
lthumb -1.24191 10.96
rfemur -9.5313 1.51812 21.5017
rtibia 9.64142
rfoot -14.3343 -4.54172
rtoes -18.1723
lfemur -10.2368 -8.11522 -17.9343
ltibia 12.9286
lfoot -16.4401 4.23951
ltoes -53.9197
34
root 8.23061 16.6209 23.8258 -169.962 3.42553 -179.216
lowerback -8.76175 2.37138 -5.35234
upperback 0.0809241 3.6793 1.22287
thorax 4.58258 1.69943 4.74073
lowerneck -9.03333 1.12627 -3.09556
upperneck 26.7976 -1.65831 6.91853
head 10.0445 -1.05708 2.66043
rclavicle -4.29872e-015 2.68359e-015
rhumerus -46.6927 -36.2 -64.2087
rradius 24.0002
rwrist 20.6634
rhand -19.8748 -39.1293
rfingers 7.12502
rthumb 6.46073 -69.0107
lclavicle -4.29872e-015 2.68359e-015
lhumerus -29.0283 16.02 81.3566
lradius 12.618
lwrist -39.7078
lhand -27.8388 -19.3336
lfingers 7.12502
lthumb -1.23025 10.6426
rfemur -9.52566 1.49985 21.5256
rtibia 9.6899
rfoot -14.3774 -4.55444
rtoes -18.3841
lfemur -10.2584 -8.05152 -17.9197
ltibia 12.9902
lfoot -16.4625 4.25433
ltoes -54.3167
35
root 8.2213 16.6214 23.8215 -169.984 3.40737 -179.326
lowerback -8.6885 2.31211 -5.48303
upperback 0.0997558 3.60867 1.22379
thorax 4.56171 1.66129 4.80372
lowerneck -8.65732 1.09129 -3.40911
upperneck 26.4714 -1.69237 7.17794
head 9.85651 -1.08176 2.7962
rclavicle -1.61016e-014 1.2921e-014
rhumerus -46.428 -35.8457 -64.5511
rradius 24.1126
rwrist 20.578
rhand -19.6371 -38.7183
rfingers 7.12502
rthumb 6.69014 -68.5926
lclavicle -1.61016e-014 1.2921e-014
lhumerus -29.1253 16.5718 81.1842
lradius 12.5036
lwrist -40.0536
lhand -27.8974 -19.4647
lfingers 7.12502
lthumb -1.28677 10.5111
rfemur -9.49637 1.5261 21.3536
rtibia 9.71419
rfoot -14.4204 -4.6076
rtoes -18.0835
lfemur -10.2342 -8.09236 -18.1009
ltibia 12.9925
lfoot -16.5333 4.24747
ltoes -54.4151
36
root 8.21119 16.6205 23.8142 -169.972 3.3932 -179.366
lowerback -8.60469 2.24095 -5.52771
upperback 0.0661469 3.51177 1.26312
thorax 4.48593 1.61588 4.85344
lowerneck -8.4223 1.08179 -3.77801
upperneck 26.3573 -1.69733 7.38686
head 9.77094 -1.10696 2.93028
rclavicle -1.57661e-014 1.98785e-015
rhumerus -46.2035 -35.3696 -64.8881
rradius 24.2969
rwrist 20.525
rhand -19.359 -38.7565
rfingers 7.12502
rthumb 6.95864 -68.6221
lclavicle -1.57661e-014 1.98785e-015
lhumerus -29.3419 16.583 81.2602
lradius 12.5935
lwrist -39.7744
lhand -27.9812 -19.3361
lfingers 7.12502
lthumb -1.36776 10.6393
rfemur -9.49101 1.54707 21.2459
rtibia 9.71418
rfoot -14.4468 -4.65572
rtoes -17.9087
lfemur -10.2082 -8.22942 -18.203
ltibia 12.9528
lfoot -16.6169 4.28373
ltoes -54.2665
37
root 8.19987 16.6186 23.8026 -169.926 3.42862 -179.254
lowerback -8.65428 2.2108 -5.42968
upperback 0.0802778 3.46095 1.36437
thorax 4.53415 1.59015 4.90262
lowerneck -8.18564 1.02497 -4.28481
upperneck 26.186 -1.75325 7.67124
head 9.66905 -1.15826 3.109
rclavicle 2.65874e-015 3.37934e-015
rhumerus -45.8974 -35.099 -65.1485
rradius 24.3953
rwrist 20.4121
rhand -19.5412 -39.2061
rfingers 7.12502
rthumb 6.78277 -69.0774
lclavicle 2.65874e-015 3.37934e-015
lhumerus -29.4725 16.3976 81.5214
lradius 12.7615
lwrist -39.2665
lhand -28.0015 -19.1837
lfingers 7.12502
lthumb -1.38734 10.7915
rfemur -9.50651 1.49631 21.3221
rtibia 9.75147
rfoot -14.4762 -4.60927
rtoes -18.456
lfemur -10.1595 -8.29521 -18.135
ltibia 12.8803
lfoot -16.6954 4.38053
ltoes -54.2595
38
root 8.18891 16.617 23.793 -169.853 3.43025 -179.231
lowerback -8.74839 2.33022 -5.36092
upperback 0.109209 3.62198 1.2796
thorax 4.60736 1.6685 4.79912
lowerneck -8.19546 0.853431 -4.20845
upperneck 26.0826 -2.00959 7.72841
head 9.65328 -1.259 3.0876
rclavicle 2.06363e-014 -3.77691e-015
rhumerus -45.8439 -35.3908 -65.2725
rradius 24.5029
rwrist 20.3612
rhand -19.6059 -39.3954
rfingers 7.12502
rthumb 6.72028 -69.2687
lclavicle 2.06363e-014 -3.77691e-015
lhumerus -29.3697 15.5541 81.8617
lradius 12.9081
lwrist -38.5652
lhand -27.9358 -19.1484
lfingers 7.12502
lthumb -1.32389 10.8272
rfemur -9.57342 1.49775 21.3112
rtibia 9.82786
rfoot -14.5588 -4.637
rtoes -18.468
lfemur -10.2212 -8.20426 -18.1587
ltibia 12.9352
lfoot -16.7305 4.32782
ltoes -54.3291
39
root 8.17855 16.6148 23.786 -169.767 3.38188 -179.323
lowerback -8.82971 2.31466 -5.47414
upperback 0.126726 3.61888 1.24946
thorax 4.66711 1.66178 4.83645
lowerneck -8.38065 0.808319 -3.94421
upperneck 26.1375 -2.02591 7.42349
head 9.70768 -1.26229 2.93445
rclavicle 1.72943e-014 -1.83876e-014
rhumerus -45.5225 -35.1911 -65.6413
rradius 24.5743
rwrist 20.0418
rhand -19.826 -38.9045
rfingers 7.12502
rthumb 6.50782 -68.7845
lclavicle 1.72943e-014 -1.83876e-014
lhumerus -29.3541 14.9867 82.1964
lradius 13.1139
lwrist -37.8056
lhand -27.8663 -19.1587
lfingers 7.12502
lthumb -1.25681 10.8174
rfemur -9.6899 1.609 21.1708
rtibia 9.9322
rfoot -14.7301 -4.79491
rtoes -17.9707
lfemur -10.3842 -8.08114 -18.301
ltibia 13.0783
lfoot -16.7217 4.23564
ltoes -54.4565
40
root 8.16617 16.6133 23.7791 -169.683 3.35415 -179.362
lowerback -8.85183 2.27213 -5.53362
upperback 0.0909332 3.56963 1.26126
thorax 4.6437 1.63817 4.87687
lowerneck -8.41366 0.816325 -3.71788
upperneck 26.1879 -1.97275 7.1035
head 9.72592 -1.24723 2.78868
rclavicle -3.77691e-015 3.27995e-015
rhumerus -45.2206 -34.736 -66.0919
rradius 24.6874
rwrist 19.516
rhand -20.2523 -38.3102
rfingers 7.12502
rthumb 6.09627 -68.2025
lclavicle -3.77691e-015 3.27995e-015
lhumerus -29.4723 14.5939 82.4806
lradius 13.3172
lwrist -37.1681
lhand -27.8476 -19.1057
lfingers 7.12502
lthumb -1.23868 10.8704
rfemur -9.81125 1.72458 21.0748
rtibia 10.0241
rfoot -14.8829 -4.91399
rtoes -17.7403
lfemur -10.5541 -8.07575 -18.3948
ltibia 13.2352
lfoot -16.8031 4.3072
ltoes -54.6871
